<svg viewBox="278 0 106 88" fill="none" xmlns="http://www.w3.org/2000/svg">
  <defs>
    <linearGradient id="merlin_grad" x1="278" y1="44" x2="384" y2="44" gradientUnits="userSpaceOnUse">
      <stop stop-color="#FF6316"/>
      <stop offset="0.5" stop-color="#FF5FCE"/>
      <stop offset="1" stop-color="#7239FF"/>
    </linearGradient>
  </defs>
  <path d="M349.115 87.8468H323.249L292.973 1.47476H318.839L349.115 87.8468Z" fill="url(#merlin_grad)"/>
  <path d="M383.5 87.8465H356.993L337.536 31.4793H363.573L383.5 87.8465Z" fill="url(#merlin_grad)"/>
  <path d="M346.235 26.0539C353.409 26.0539 359.224 20.2215 359.224 13.0269C359.224 5.83236 353.409 0 346.235 0C339.062 0 333.247 5.83236 333.247 13.0269C333.247 20.2215 339.062 26.0539 346.235 26.0539Z" fill="url(#merlin_grad)"/>
  <path d="M292.974 72.6936C300.147 72.6936 305.962 66.8612 305.962 59.6666C305.962 52.4721 300.147 46.6397 292.974 46.6397C285.8 46.6397 279.985 52.4721 279.985 59.6666C279.985 66.8612 285.8 72.6936 292.974 72.6936Z" fill="url(#merlin_grad)"/>
</svg>
