<svg width="106" height="88" viewBox="0 0 106 88" fill="none" xmlns="http://www.w3.org/2000/svg">
  <defs>
    <linearGradient id="merlin_grad" x1="0" y1="44" x2="106" y2="44" gradientUnits="userSpaceOnUse">
      <stop stop-color="#FF6316"/>
      <stop offset="0.5" stop-color="#FF5FCE"/>
      <stop offset="1" stop-color="#7239FF"/>
    </linearGradient>
  </defs>
  <path d="M71.115 87.8468H45.249L14.973 1.47476H40.839L71.115 87.8468Z" fill="url(#merlin_grad)"/>
  <path d="M105.5 87.8465H78.993L59.536 31.4793H85.573L105.5 87.8465Z" fill="url(#merlin_grad)"/>
  <path d="M68.235 26.0539C75.409 26.0539 81.224 20.2215 81.224 13.0269C81.224 5.83236 75.409 0 68.235 0C61.062 0 55.247 5.83236 55.247 13.0269C55.247 20.2215 61.062 26.0539 68.235 26.0539Z" fill="url(#merlin_grad)"/>
  <path d="M14.974 72.6936C22.147 72.6936 27.962 66.8612 27.962 59.6666C27.962 52.4721 22.147 46.6397 14.974 46.6397C7.8 46.6397 1.985 52.4721 1.985 59.6666C1.985 66.8612 7.8 72.6936 14.974 72.6936Z" fill="url(#merlin_grad)"/>
</svg>
