<svg width="100%" viewBox="0 0 384 88" fill="none" xmlns="http://www.w3.org/2000/svg">
  <path d="M349.115 87.8468H323.249L292.973 1.47476H318.839L349.115 87.8468Z" fill="url(#paint0_linear_1805_3804)"></path>
  <path d="M349.115 87.8468H323.249L292.973 1.47476H318.839L349.115 87.8468Z" fill="white"></path>
  <path d="M383.5 87.8465H356.993L337.536 31.4793H363.573L383.5 87.8465Z" fill="url(#paint1_linear_1805_3804)"></path>
  <path d="M383.5 87.8465H356.993L337.536 31.4793H363.573L383.5 87.8465Z" fill="white"></path>
  <path d="M346.235 26.0539C353.409 26.0539 359.224 20.2215 359.224 13.0269C359.224 5.83236 353.409 0 346.235 0C339.062 0 333.247 5.83236 333.247 13.0269C333.247 20.2215 339.062 26.0539 346.235 26.0539Z" fill="url(#paint2_linear_1805_3804)"></path>
  <path d="M346.235 26.0539C353.409 26.0539 359.224 20.2215 359.224 13.0269C359.224 5.83236 353.409 0 346.235 0C339.062 0 333.247 5.83236 333.247 13.0269C333.247 20.2215 339.062 26.0539 346.235 26.0539Z" fill="white"></path>
  <path d="M292.974 72.6936C300.147 72.6936 305.962 66.8612 305.962 59.6666C305.962 52.4721 300.147 46.6397 292.974 46.6397C285.8 46.6397 279.985 52.4721 279.985 59.6666C279.985 66.8612 285.8 72.6936 292.974 72.6936Z" fill="url(#paint3_linear_1805_3804)"></path>
  <path d="M292.974 72.6936C300.147 72.6936 305.962 66.8612 305.962 59.6666C305.962 52.4721 300.147 46.6397 292.974 46.6397C285.8 46.6397 279.985 52.4721 279.985 59.6666C279.985 66.8612 285.8 72.6936 292.974 72.6936Z" fill="white"></path>
  <path d="M63.2981 86.5602V38.7633L43.7383 86.5602H32.7151L13.1553 39.1576V86.5602H0.5V18.383H17.9491L38.372 67.6197L58.3163 18.383H76.338V86.5602H63.2981Z" fill="url(#paint4_linear_1805_3804)"></path>
  <path d="M63.2981 86.5602V38.7633L43.7383 86.5602H32.7151L13.1553 39.1576V86.5602H0.5V18.383H17.9491L38.372 67.6197L58.3163 18.383H76.338V86.5602H63.2981Z" fill="white"></path>
  <path d="M130.984 73.0019C128.583 81.178 121.106 88 109.51 88C96.5645 88 85.1567 78.6755 85.1567 62.7089C85.1567 47.6079 96.2825 37.8034 108.357 37.8034C122.935 37.8034 131.651 47.128 131.651 62.3232C131.651 64.1487 131.463 66.077 131.463 66.2656H97.7095C98.0001 72.5134 103.272 77.0385 109.596 77.0385C115.543 77.0385 118.799 74.056 120.337 69.8309L130.976 73.0019H130.984ZM119.098 57.5238C118.91 52.8101 115.842 48.1993 108.553 48.1993C101.939 48.1993 98.2906 53.1958 98.0086 57.5238H119.098Z" fill="url(#paint5_linear_1805_3804)"></path>
  <path d="M130.984 73.0019C128.583 81.178 121.106 88 109.51 88C96.5645 88 85.1567 78.6755 85.1567 62.7089C85.1567 47.6079 96.2825 37.8034 108.357 37.8034C122.935 37.8034 131.651 47.128 131.651 62.3232C131.651 64.1487 131.463 66.077 131.463 66.2656H97.7095C98.0001 72.5134 103.272 77.0385 109.596 77.0385C115.543 77.0385 118.799 74.056 120.337 69.8309L130.976 73.0019H130.984ZM119.098 57.5238C118.91 52.8101 115.842 48.1993 108.553 48.1993C101.939 48.1993 98.2906 53.1958 98.0086 57.5238H119.098Z" fill="white"></path>
  <path d="M168.95 51.9444C167.515 51.653 166.267 51.5587 165.113 51.5587C158.594 51.5587 152.937 54.7298 152.937 64.9285V86.5686H140.187V39.2603H152.552V46.2794C155.432 40.0316 161.952 38.8746 165.977 38.8746C167.028 38.8746 167.993 38.9689 168.95 39.0717V51.953V51.9444Z" fill="url(#paint6_linear_1805_3804)"></path>
  <path d="M168.95 51.9444C167.515 51.653 166.267 51.5587 165.113 51.5587C158.594 51.5587 152.937 54.7298 152.937 64.9285V86.5686H140.187V39.2603H152.552V46.2794C155.432 40.0316 161.952 38.8746 165.977 38.8746C167.028 38.8746 167.993 38.9689 168.95 39.0717V51.953V51.9444Z" fill="white"></path>
  <path d="M175.666 86.5605V16.9436H188.415V86.5605H175.666Z" fill="url(#paint7_linear_1805_3804)"></path>
  <path d="M175.666 86.5605V16.9436H188.415V86.5605H175.666Z" fill="white"></path>
  <path d="M206.053 15.7865C210.463 15.7865 213.915 19.3432 213.915 23.7655C213.915 28.1878 210.463 31.5559 206.053 31.5559C201.644 31.5559 198.192 27.9992 198.192 23.7655C198.192 19.5317 201.738 15.7865 206.053 15.7865ZM199.73 86.5604V39.2521H212.479V86.5604H199.73Z" fill="url(#paint8_linear_1805_3804)"></path>
  <path d="M206.053 15.7865C210.463 15.7865 213.915 19.3432 213.915 23.7655C213.915 28.1878 210.463 31.5559 206.053 31.5559C201.644 31.5559 198.192 27.9992 198.192 23.7655C198.192 19.5317 201.738 15.7865 206.053 15.7865ZM199.73 86.5604V39.2521H212.479V86.5604H199.73Z" fill="white"></path>
  <path d="M236.542 86.561H223.793V39.2527H236.157V45.1148C239.037 40.2126 244.694 38.0014 249.77 38.0014C261.468 38.0014 266.834 46.3661 266.834 56.7533V86.561H254.085V58.9645C254.085 53.6766 251.496 49.5371 245.36 49.5371C239.798 49.5371 236.542 53.8651 236.542 59.3416V86.561Z" fill="url(#paint9_linear_1805_3804)"></path>
  <path d="M236.542 86.561H223.793V39.2527H236.157V45.1148C239.037 40.2126 244.694 38.0014 249.77 38.0014C261.468 38.0014 266.834 46.3661 266.834 56.7533V86.561H254.085V58.9645C254.085 53.6766 251.496 49.5371 245.36 49.5371C239.798 49.5371 236.542 53.8651 236.542 59.3416V86.561Z" fill="white"></path>
  <defs>
    <linearGradient id="paint0_linear_1805_3804" x1="0.5" y1="44" x2="383.5" y2="44" gradientUnits="userSpaceOnUse">
      <stop stop-color="#FF6316"></stop>
      <stop offset="0.5" stop-color="#FF5FCE"></stop>
      <stop offset="1" stop-color="#7239FF"></stop>
    </linearGradient>
    <linearGradient id="paint1_linear_1805_3804" x1="0.5" y1="44" x2="383.5" y2="44" gradientUnits="userSpaceOnUse">
      <stop stop-color="#FF6316"></stop>
      <stop offset="0.5" stop-color="#FF5FCE"></stop>
      <stop offset="1" stop-color="#7239FF"></stop>
    </linearGradient>
    <linearGradient id="paint2_linear_1805_3804" x1="0.5" y1="44" x2="383.5" y2="44" gradientUnits="userSpaceOnUse">
      <stop stop-color="#FF6316"></stop>
      <stop offset="0.5" stop-color="#FF5FCE"></stop>
      <stop offset="1" stop-color="#7239FF"></stop>
    </linearGradient>
    <linearGradient id="paint3_linear_1805_3804" x1="0.5" y1="44" x2="383.5" y2="44" gradientUnits="userSpaceOnUse">
      <stop stop-color="#FF6316"></stop>
      <stop offset="0.5" stop-color="#FF5FCE"></stop>
      <stop offset="1" stop-color="#7239FF"></stop>
    </linearGradient>
    <linearGradient id="paint4_linear_1805_3804" x1="0.5" y1="44" x2="383.5" y2="44" gradientUnits="userSpaceOnUse">
      <stop stop-color="#FF6316"></stop>
      <stop offset="0.5" stop-color="#FF5FCE"></stop>
      <stop offset="1" stop-color="#7239FF"></stop>
    </linearGradient>
    <linearGradient id="paint5_linear_1805_3804" x1="0.5" y1="44" x2="383.5" y2="44" gradientUnits="userSpaceOnUse">
      <stop stop-color="#FF6316"></stop>
      <stop offset="0.5" stop-color="#FF5FCE"></stop>
      <stop offset="1" stop-color="#7239FF"></stop>
    </linearGradient>
    <linearGradient id="paint6_linear_1805_3804" x1="0.5" y1="44" x2="383.5" y2="44" gradientUnits="userSpaceOnUse">
      <stop stop-color="#FF6316"></stop>
      <stop offset="0.5" stop-color="#FF5FCE"></stop>
      <stop offset="1" stop-color="#7239FF"></stop>
    </linearGradient>
    <linearGradient id="paint7_linear_1805_3804" x1="0.5" y1="44" x2="383.5" y2="44" gradientUnits="userSpaceOnUse">
      <stop stop-color="#FF6316"></stop>
      <stop offset="0.5" stop-color="#FF5FCE"></stop>
      <stop offset="1" stop-color="#7239FF"></stop>
    </linearGradient>
    <linearGradient id="paint8_linear_1805_3804" x1="0.5" y1="44" x2="383.5" y2="44" gradientUnits="userSpaceOnUse">
      <stop stop-color="#FF6316"></stop>
      <stop offset="0.5" stop-color="#FF5FCE"></stop>
      <stop offset="1" stop-color="#7239FF"></stop>
    </linearGradient>
    <linearGradient id="paint9_linear_1805_3804" x1="0.5" y1="44" x2="383.5" y2="44" gradientUnits="userSpaceOnUse">
      <stop stop-color="#FF6316"></stop>
      <stop offset="0.5" stop-color="#FF5FCE"></stop>
      <stop offset="1" stop-color="#7239FF"></stop>
    </linearGradient>
  </defs>
</svg>
